<svg xmlns="http://www.w3.org/2000/svg" viewBox="0 0 320 220" role="img" aria-labelledby="title">
  <title id="title">Cyber Helmet</title>
  <defs>
    <linearGradient id="helmetBg" x1="0" x2="1" y1="0" y2="1">
      <stop offset="0" stop-color="#141821"/>
      <stop offset="1" stop-color="#f97316"/>
    </linearGradient>
  </defs>
  <rect width="320" height="220" rx="22" fill="url(#helmetBg)"/>
  <path d="M86 112 C86 58 121 34 162 34 C204 34 238 58 238 112 V158 C238 176 222 188 202 188 H122 C102 188 86 176 86 158 Z" fill="#f4f7fb"/>
  <path d="M110 106 C120 82 138 70 162 70 C186 70 204 82 214 106 L198 128 H126 Z" fill="#202633"/>
  <rect x="124" y="112" width="78" height="12" rx="6" fill="#28d8a1"/>
  <path d="M98 152 H226" stroke="#202633" stroke-width="12" stroke-linecap="round"/>
  <path d="M78 112 H102 M222 112 H246" stroke="#ffcf4d" stroke-width="12" stroke-linecap="round"/>
</svg>
